<svg xmlns="http://www.w3.org/2000/svg" xmlns:xlink="http://www.w3.org/1999/xlink"><defs><clipPath id="a"><path fill="#fff" d="M0 0h24v24H0z"/></clipPath></defs><symbol id="feature-triangle"><path fill-rule="evenodd" clip-rule="evenodd" d="M-225 0h384v37L-225 0ZM543 0H159v37L543 0Z" fill="#fff"/></symbol><symbol id="hero-decor"><path d="M249.6 23.7 0 0v57h600L249.6 0v23.7ZM950.4 23.7V0L600 57h599.9V0L950.4 23.7Z" fill="#fff"/></symbol><symbol id="hero-text"><path fill-rule="evenodd" clip-rule="evenodd" d="m165.739 70-.2.2c-1.405 1.5-3.01 2.2-4.515 2.2l2.809-4.9c1.806-3.1.1-6.1-2.709-6.1-2.307 0-4.113.9-5.819 3.9l-1.505 2.6-1.204 2.1-.2.2c-2.207 2.5-4.314 4.5-5.619 4.5-.702 0-1.003-.5-.3-1.6l6.42-11.2h2.408l.903-1.4H153.7l2.809-4.9h-3.01l-2.809 4.9h-2.709l-.903 1.4h2.709l-6.019 10.4c-1.305 2.2-.402 4.3 2.006 4.3 1.706 0 3.712-1.3 5.518-3.1 0 3.8 5.317 4.6 8.528.5h.702c1.806 0 4.615-1.1 6.12-2.9 0-.5-.501-.9-.903-1.1Zm-6.421.2h-.1c-1.003 0-1.806.8-1.806 1.8 0 .4.1.7.301 1v.1c-1.404 2.4-4.816 2-3.11-1.2l2.307-3.9 1.405-2.4c2.107-3.6 5.016-2.2 3.21.9l-2.207 3.7Zm48.057-.2-.201.2c-2.207 2.5-4.916 4.5-7.023 4.5-1.806 0-2.909-1.2-1.605-3.6l.301-.5c1.906.8 5.618.4 7.825-3.5l.402-.7c1.605-2.8.1-4.8-2.408-4.8-2.408 0-4.314 1.3-5.618 3.5l-2.91 5-.2.2c-2.208 2.5-4.315 4.5-5.619 4.5-.702 0-1.003-.5-.301-1.6l4.314-7.6c1.305-2.3.101-3.9-1.605-3.9-1.304 0-2.709.7-4.214 2.3l4.816-8.3h-3.01L181.992 70l-.201.2c-2.207 2.5-4.314 4.5-5.618 4.5-.702 0-1.003-.5-.301-1.6l6.421-11.2h2.408l.903-1.4h-2.508l2.809-4.9h-3.01l-2.809 4.9h-2.709l-.903 1.4h2.709l-6.02 10.4c-1.304 2.2-.401 4.3 2.007 4.3 1.204 0 2.508-.6 3.812-1.6l-.802 1.3h3.01l4.514-7.9c4.615-5.8 6.622-5 5.418-2.8l-3.913 6.8c-1.304 2.2-.401 4.3 2.007 4.3 1.806 0 3.812-1.4 5.618-3.2.1 1.9 1.705 3.2 4.113 3.2 3.411 0 6.823-2.6 9.23-5.5.101-.6-.401-1-.802-1.2Zm-5.719-4.2c1.706-3 4.816-2.5 3.01.6l-.401.7c-1.405 2.4-3.411 2.4-4.515 2l1.906-3.3Zm114.974 4.4.201-.2c.501.1 1.003.6 1.103 1.1-2.207 2.6-5.217 5-8.327 5.4h-.1c-.301.1-.502.1-.803.1-2.809 0-3.31-2.4-3.31-2.4l1.906-1s.401 1.1 1.404 1.1c1.923 0 2.268-2.446 2.629-5 .185-1.31.374-2.649.782-3.7-.352.447-.746.966-1.173 1.53h-.001l-.001.002c-.911 1.201-1.979 2.608-3.139 3.968-2.508 2.9-5.317 5.5-7.825 5.5-1.906 0-2.91-1.3-2.609-2.9-1.404 1.4-3.31 2.9-4.916 2.9-1.705 0-2.407-1.4-1.605-3.5-1.103.6-2.408.9-3.311.9h-.702c-3.21 4.1-8.628 3.3-8.528-.6-2.006 1.8-4.514 3.2-6.922 3.2-2.508 0-4.013-1.3-4.113-3.2-2.509 2.4-4.916 3.8-7.324 4.6l-2.308 3.9c-2.207 3.7-6.621 3.1-6.621.2 0-2.2 2.608-3.9 6.621-5.1l.702-1.2c-1.103.6-2.106 1-2.909 1-1.706 0-2.608-1-2.608-2.4-1.606 1.4-3.311 2.4-4.816 2.4-2.408 0-3.311-2.1-2.007-4.3l3.211-5.5c.301-.6.2-1.2-.201-1.7l-.401-.5c-2.408 3.2-3.612 4.7-5.017 6.4-1.504 1.8-4.314 2.9-6.119 2.9h-.703c-3.21 4.1-8.527 3.3-8.527-.5-2.509 2.3-4.816 3.8-7.224 4.5l-2.307 3.9c-2.208 3.7-6.622 3.1-6.622.2 0-2.2 2.608-3.9 6.622-5.1l.802-1.4c-1.103.6-2.107 1-2.909 1-2.408 0-3.311-2.1-2.007-4.3l4.214-7.3c1.204-2.2 3.511-3.5 5.116-3.5 1.806 0 3.111 1.7 3.111 2.9h1.806L222.123 76c2.407-1 4.514-2.8 7.022-5.7l.201-.2 1.204-2.1 1.505-2.6c1.705-3 3.511-3.9 5.819-3.9 2.809 0 4.515 3 2.709 6.1l-2.809 4.9c1.504 0 3.11-.7 4.514-2.2l.201-.2c2.006-2.3 3.812-4.8 5.117-6.7l-.301-.3c-1.004-1.4-.903-3.1.802-4.6l1.605 1.7c-.602.5-.602 1.2-.2 1.7l1.705 2c.903 1.2 1.405 2.3.402 4.1l-3.01 5.2c-.702 1.1-.401 1.6.301 1.6 1.304 0 3.411-2 5.618-4.5l.201-.2 2.909-5c1.204-2.2 3.512-3.5 5.117-3.5 1.806 0 3.11 1.7 3.11 2.9h1.806L260.949 76c2.408-1 4.515-2.8 7.023-5.7l.2-.2 2.91-5c1.304-2.2 3.21-3.5 5.618-3.5 2.508 0 4.013 2 2.408 4.8l-.401.7c-2.207 3.9-5.919 4.3-7.826 3.5l-.301.5c-1.304 2.4-.2 3.6 1.606 3.6 2.106 0 4.815-2 7.022-4.5l.201-.2 1.204-2.1 1.505-2.6c1.705-3 3.511-3.9 5.819-3.9 2.809 0 4.514 3 2.709 6.1l-2.81 4.9c1.505 0 3.111-.7 4.515-2.2l.201-.2 4.715-8.1h3.01l-5.819 10.2-.037.064-.049.085c-.405.698-.97 1.672-.315 1.951.602.2 2.307-.9 4.615-3l5.317-9.3h3.01l-6.421 11.2c-.702 1.1-.401 1.6.301 1.6 1.304 0 3.411-2 5.618-4.5l.201-.2c2.598-2.96 5.109-6.517 6.425-8.38l.011-.016.286-.404 2.207 1.2c-1.147 2.346-1.495 4.836-1.808 7.079-.208 1.487-.401 2.865-.801 4.021 1.204-.9 2.509-2 3.612-3.3Zm-39.829-3.8c1.805-3.1-1.305-3.6-3.01-.6l-1.906 3.3c1.103.4 3.11.4 4.514-2l.402-.7Zm-62.002 15.1c0 .9 1.003 1 1.605-.1l1.405-2.5c-2.308.9-3.01 1.8-3.01 2.6Zm2.709-8.4c-.703 1.1-.402 1.6.301 1.6 1.204 0 3.11-1.4 4.916-4.3l2.307-4c1.505-2.7-1.705-3.4-3.311-.6l-4.213 7.3Zm18.66-2.9h.101l2.207-3.7c1.806-3.1-1.104-4.5-3.211-.9l-1.404 2.4-2.308 3.9c-1.705 3.2 1.706 3.6 3.11 1.2V73c-.2-.3-.301-.6-.301-1 0-1 .803-1.8 1.806-1.8Zm17.357 11.3c0 .9 1.003 1 1.605-.1l1.405-2.5c-2.308.9-3.01 1.8-3.01 2.6Zm2.709-8.4c-.703 1.1-.402 1.6.301 1.6 1.204 0 3.11-1.4 4.916-4.3l2.307-4c1.505-2.7-1.705-3.4-3.311-.6l-4.213 7.3Zm29.797-2.9h.1l2.207-3.7c1.806-3.1-1.104-4.5-3.21-.9l-1.405 2.4-2.307 3.9c-1.706 3.2 1.705 3.6 3.11 1.2V73c-.201-.3-.301-.6-.301-1 0-1 .802-1.8 1.806-1.8Zm-155.506-3.4H101.53v2h28.995v-2Zm198.746 0h28.995v2h-28.995v-2Z" fill="#766458"/><path fill-rule="evenodd" clip-rule="evenodd" d="M163.532 0h7.725l-1.204 44.9h-14.547l-2.007-18.5-2.006 18.5h-14.648L135.742 0h7.625l.601 37.2h.803L149.687 0h7.625l4.916 37.2h.802l.502-37.2Zm31.904 37.2V45h-20.968V0h20.968v7.7h-13.343v10.8h10.634v7.7h-10.634v10.9h13.343v.1Zm21.47 7.8v-7.8h-10.735V0h-7.625v45h18.36Zm16.253-16.6 7.725-1.8v13.6c0 2.6-2.207 4.7-4.715 4.7h-11.538c-2.608 0-4.715-2.2-4.715-4.7V4.7c0-2.6 2.107-4.7 4.715-4.7h11.538c2.508 0 4.715 2.1 4.715 4.7v9.1l-7.725 1.8v-8h-5.518v29.5h5.518v-8.7Zm33.308-23.7c0-2.6-2.207-4.7-4.715-4.7h-11.538a4.702 4.702 0 0 0-4.715 4.7v35.4c0 2.5 2.107 4.7 4.715 4.7h11.538c2.508 0 4.715-2.1 4.715-4.7V4.7Zm-13.243 3h5.518v29.5h-5.518V7.7ZM291.549 0h7.624v44.9h-7.624V22.8l-3.11 11.4h-7.525l-3.01-11.4v22.1h-7.625V0h7.625l6.822 21.7L291.549 0Zm32.405 45V37.1h-13.343V26.2h10.634v-7.7h-10.634V7.7h13.343V0h-20.968v45h20.968Z" fill="#81B3D3"/><path fill-rule="evenodd" clip-rule="evenodd" d="M246.101 215.7c24.078 0 41.535-17.1 41.535-41.3 0-22.6-19.965-38.5-41.535-38.5-21.57 0-41.535 15.9-41.535 38.5 0 24.2 17.456 41.3 41.535 41.3ZM246 196.8c-11.637 0-21.168-9.4-21.168-22.3 0-10.3 9.631-19.8 21.168-19.8 11.638 0 21.169 9.5 21.169 19.8 0 12.9-9.531 22.3-21.169 22.3ZM31.502 152.6c4.816 0 9.33 2 12.943 5l7.725-15c-6.622-3.8-15.952-6.2-23.477-6.2-15.049 0-25.884 9.9-25.884 25.1 0 14.5 8.026 17.6 20.266 21.2.24.069.492.139.753.212l.004.001c4.306 1.206 11.082 3.103 11.082 8.287 0 5.2-4.816 7.5-9.431 7.5-6.722 0-12.44-3.4-17.357-7.7L0 206.5c7.625 5.3 16.955 8.5 26.386 8.5 7.524 0 15.35-2 21.27-7 5.918-5 7.724-12.7 7.724-20.1 0-12.1-8.126-17.3-18.56-20.4l-5.017-1.5c-3.31-1-8.628-2.7-8.628-7.1 0-4.2 4.716-6.3 8.328-6.3ZM91.9 167.3v-12.5l23.276.1v-16.5h-42.74v74.8h42.74v-16.5H91.899v-12.9h21.971v-16.5H91.899Zm37.723-28.9h27.69c20.868 0 38.124 16.4 38.124 37.4s-17.357 37.4-38.124 37.4h-27.69v-74.8Zm19.563 58.3h4.415c11.638 0 21.57-6.4 21.57-20.9 0-13.4-8.829-20.9-21.37-20.9h-4.615v41.8Zm148.785-58.3h19.563l35.716 45.8h.201v-45.8h19.564v74.8H353.45l-35.716-45.9h-.201v45.9H297.97v-74.8Zm105.242 74.8 5.217-13h26.888l4.916 13H461l-28.292-74.8h-21.269l-28.894 74.8h20.667Zm18.661-51.7h.2l8.027 23.8h-16.253l8.026-23.8ZM80.462 277.6c0 .3-.1.6-.201.9-.1.3-.3.6-.502.8-.2.2-.501.4-.802.6-.301.1-.703.2-1.104.2-.501 0-.903-.1-1.304-.3-.402-.2-.803-.4-1.104-.7-.238-.237-.35-.475-.486-.761a12.165 12.165 0 0 0-.116-.239c-.1-.4-.2-.8-.2-1.3 0-.9.2-1.6.501-2.4.301-.7.703-1.4 1.305-1.9.2-.2.501-.5.802-.7.301-.2.602-.4.903-.5.19-.063.339-.165.473-.257.08-.055.155-.106.23-.143.076-.038.138-.062.191-.082a.518.518 0 0 0 .21-.118l1.404 2c-.06.03-.13.06-.205.093l-.002.001a3.685 3.685 0 0 0-.595.306c-.301.1-.602.3-.903.5-.301.2-.502.5-.703.8-.2.3-.3.6-.3 1 .702 0 1.203.2 1.705.6.602.3.803.9.803 1.6Zm7.925 0c0 .3-.1.6-.2.9-.1.3-.301.6-.502.8-.2.2-.501.4-.802.6-.301.1-.703.2-1.104.2-.502 0-.903-.1-1.304-.3-.402-.2-.803-.4-1.104-.7-.2-.3-.401-.6-.602-1-.1-.4-.2-.8-.2-1.3 0-.9.2-1.6.501-2.4.301-.7.703-1.4 1.304-1.9.201-.2.502-.5.803-.7.301-.2.602-.4.903-.5.189-.063.338-.165.473-.257.08-.055.155-.106.23-.143.076-.038.138-.062.19-.082a.518.518 0 0 0 .21-.118l1.405 2c-.06.03-.13.06-.205.093l-.002.001a3.685 3.685 0 0 0-.596.306c-.3.1-.601.3-.902.5-.301.2-.502.5-.703.8-.2.3-.3.6-.3 1 .702 0 1.203.2 1.705.6.502.3.803.9.803 1.6Zm275.698 18.5.301-.3c.29.116.646.365.973.593h.001v.001c.239.166.462.322.631.406-3.21 3.6-6.822 7-9.932 7-1.907 0-3.11-1-3.311-2.5-1.906 1.5-3.812 2.5-5.317 2.5-2.308 0-3.512-1.4-3.311-3.3-2.207 1.9-4.415 3.3-6.421 3.3-3.11 0-4.214-2.6-2.609-5.4l4.916-8.6c1.706-2.8-.902-3.8-6.721 3.5l-5.819 10.1h-3.813l1.405-2.4c-1.906 1.7-3.913 2.8-5.719 2.8-1.906 0-3.11-1-3.311-2.5-1.906 1.5-3.812 2.5-5.317 2.5-2.207 0-3.311-1.3-3.311-3-2.006 1.8-4.113 3-6.019 3-3.11 0-4.214-2.6-2.609-5.4l4.013-7c.502-.8.301-1.6-.2-2.2l-.502-.6-.468.628-.001.002c-2.597 3.481-3.939 5.281-5.551 7.17.039.077.062.138.083.191a.507.507 0 0 0 .118.209c-4.214 4.9-8.126 7.6-12.039 8.8l-2.91 5c-2.708 4.7-8.327 3.9-8.327.3 0-2.9 3.211-4.9 8.327-6.5l1.004-1.7a7.668 7.668 0 0 1-4.114 1.2c-5.417 0-5.919-5.1-3.21-9.7l1.104-2c-3.111-1.6-4.816-4.5-4.816-7.5 0-2.6 1.204-5.2 3.913-7.1l1.204 2.2c-1.606 1.3-2.408 3-2.408 4.8 0 2.1 1.204 4.2 3.411 5.4l5.919-10.2c1.706-2.9 4.214-4.4 6.321-4.4 11.938 0 5.417 18.1-8.127 18.1-.802 0-1.505-.1-2.207-.2l-1.104 1.9c-2.307 3.9-1.806 6.5.803 6.5 3.01 0 5.317-2.6 7.324-6.1l.401-.7h3.712l-4.815 8.2c3.009-1.3 5.718-3.6 8.828-7.2l-.301-.3c2.229-2.576 4.219-5.389 5.832-7.668l.589-.832-.301-.4c-1.304-1.7-1.204-3.9 1.003-5.8l2.007 2.2c-.702.7-.702 1.5-.201 2.2l2.107 2.6c1.204 1.5 1.806 2.8.502 5.1l-3.813 6.6c-.903 1.5-.401 2.1.402 2.1 1.705 0 4.414-2.5 7.123-5.7l.201-.2 3.712-6.3c1.605-2.8 4.514-4.4 6.521-4.4 2.508 0 4.113 2.2 4.013 3.8h1.906l-6.12 10.7c-.903 1.5-.401 2.1.402 2.1 1.705 0 4.414-2.5 7.123-5.7l.301-.3c.2 0 .301.1.401.2l6.12-10.5h3.812l-1.404 2.5c1.906-1.9 3.712-2.8 5.317-2.8 2.107 0 3.612 2.1 2.007 5l-5.518 9.6c-.903 1.5-.402 2.1.401 2.1 1.705 0 4.414-2.5 7.123-5.7l.301-.3s.1.1.201.1l3.712-6.4c1.605-2.8 4.514-4.4 6.521-4.4 1.605 0 2.809.9 3.511 2l5.619-9.6h3.812l-12.842 22.2c-.903 1.5-.401 2.1.402 2.1 1.705 0 4.414-2.5 7.123-5.7Zm-74.442-17.3c-1.004 0-2.308.9-3.412 2.8l-5.517 9.5h.802c9.932 0 14.146-12.3 8.127-12.3Zm-13.645 31.6c0 1 1.304 1.2 2.107-.2l1.706-3c-2.91 1.1-3.813 2.2-3.813 3.2Zm35.817-8.7c1.505 0 3.812-1.7 6.12-5.3l3.009-5.2c1.907-3.4-2.207-4.3-4.213-.8l-5.318 9.2c-.903 1.5-.401 2.1.402 2.1Zm36.719 0c1.605 0 3.913-1.7 6.22-5.5l2.91-5c1.906-3.4-2.207-4.3-4.214-.8l-5.317 9.2c-.903 1.5-.401 2.1.401 2.1Zm-239.579-26.2c7.524 0 7.022 9.6-.703 12.2 7.324 4.9 2.007 18.5-9.33 18.5-13.343 0-15.751-14.6-7.725-19.7l1.505 1.9c-3.712 2.4-4.415 7.8-1.806 11.4.505-.587.869-1.175 1.27-1.821l.235-.379 10.233-17.7c1.706-2.9 4.214-4.4 6.321-4.4ZM93.304 302c1.504.8 3.21 1.3 5.518 1.3 9.23 0 12.741-13.1 3.812-15l-1.003-.1-6.421 11.1c-.602 1-1.204 1.9-1.906 2.7Zm12.741-21.3-3.11 5.3c3.913-.1 6.02-.9 7.524-3.7 1.907-3.6-1.605-6.4-4.414-1.6Zm37.522 23.4c-2.508 0-3.712-1.9-3.11-4.1-2.709 2.3-5.819 4.1-9.029 4.3-3.211 0-5.217-2-5.117-4.6-2.709 2.6-6.12 4.6-9.431 4.6-4.514 0-6.621-3.8-4.213-7.8l4.013-6.8c1.605-2.8 4.013-4.4 7.123-4.4 3.11 0 5.016 2.6 3.01 6.1l-.502.9c-2.909 4.9-7.524 5.4-9.932 4.4l-.402.7c-1.705 3-.301 4.5 2.007 4.5 2.709 0 6.22-2.5 8.929-5.7l.301-.3c.05.05.1.075.151.1.05.025.1.05.15.1l3.812-6.5c1.606-2.8 4.013-4.4 7.124-4.4 3.11 0 5.016 2.6 3.009 6.1l-.501.9h-3.11l.501-.9c2.308-3.9-1.605-4.6-3.812-.8l-3.913 6.8c-1.705 3-.301 4.5 2.007 4.5 2.708 0 6.22-2.5 8.929-5.7l.301-.3c.2.1.401.2.602.4l3.812-6.6c1.605-2.8 4.515-4.4 6.521-4.4 2.508 0 4.114 2.2 4.013 3.8h2.208l-6.12 10.7c-.903 1.5-.402 2.1.401 2.1 1.705 0 4.414-2.5 7.123-5.7l.301-.3c.05.05.1.075.151.1.05.025.1.05.15.1l6.02-10.4h3.812l-7.424 12.9-.031.05c-.507.807-1.355 2.158-.471 2.55.703.3 2.91-1.2 5.819-3.8l6.722-11.8h3.812l-8.126 14.2c-.903 1.5-.401 2.1.401 2.1 1.706 0 4.415-2.5 7.124-5.7l.1-.2-.1-.1c2.82-3.308 5.641-7.231 7.441-9.734l.003-.004c.375-.522.706-.982.983-1.362l2.809 1.5c-1.474 2.938-1.933 6.176-2.343 9.072-.26 1.835-.501 3.532-.968 4.928 1.505-1 3.211-2.5 4.615-4.1l.301-.3h.101l3.712-6.3c1.605-2.8 4.013-4.4 7.123-4.4 3.11 0 5.016 2.6 3.01 6.1l-.502.9c-2.909 4.9-7.524 5.4-9.932 4.4l-.402.7c-1.705 3-.301 4.5 2.007 4.5 2.709 0 6.22-2.5 8.929-5.7l.301-.3c.502.2 1.104.8 1.405 1.3-3.111 3.6-7.425 7-11.739 7-3.11 0-5.016-1.8-5.116-4.3-2.408 2.1-5.117 3.8-7.926 4.2h-.1c-.402.1-.703.1-1.104.1-3.511 0-4.214-3.1-4.214-3.1l2.408-1.2s.502 1.4 1.806 1.4c2.393 0 2.848-3.118 3.321-6.356.24-1.649.485-3.328.993-4.644-.426.547-.89 1.167-1.387 1.833h-.001c-1.141 1.528-2.462 3.296-3.929 4.967 0 .05.025.075.05.1.025.025.05.05.05.1-3.21 3.6-6.822 7-9.932 7-2.408 0-3.612-1.6-3.211-3.6-1.806 1.7-4.113 3.6-6.22 3.6-1.906 0-2.809-1.4-2.408-3.4-2.207 2-4.414 3.4-6.421 3.4-1.906 0-3.11-1-3.31-2.5-1.907 1.5-3.813 2.5-5.318 2.5Zm58.892-12.9c2.307-3.9-1.605-4.6-3.813-.8l-2.407 4.2c1.404.5 3.912.6 5.718-2.5l.502-.9Zm-52.872-.7-5.317 9.2c-.903 1.5-.402 2 .401 2.1 1.505 0 3.812-1.7 6.12-5.3l3.01-5.2c1.906-3.4-2.208-4.3-4.214-.8Zm-25.784.7c2.307-3.9-1.605-4.6-3.812-.8l-2.408 4.2c1.404.5 3.912.6 5.718-2.5l.502-.9Zm125.207 12.9c4.314 0 8.628-3.4 11.739-7-.301-.5-.903-1.1-1.405-1.3l-.301.3c-2.709 3.2-6.22 5.7-8.929 5.7-2.308 0-3.712-1.5-2.007-4.5l.402-.7c2.407 1 7.022.5 9.932-4.4l.502-.9c2.006-3.5.1-6.1-3.01-6.1s-5.518 1.6-7.123 4.4l-3.712 6.3s-.101 0-.101-.1l-.301.3c-2.709 3.2-5.417 5.7-7.123 5.7-.803 0-1.304-.6-.401-2.1l5.518-9.6c1.605-2.9.1-5-2.007-5-1.605 0-3.411.9-5.317 2.9l6.12-10.5h-3.913L226.838 296c-.05-.05-.125-.1-.201-.15-.075-.05-.15-.1-.2-.15l-.301.3c-2.709 3.2-5.418 5.7-7.123 5.7-.803 0-1.305-.6-.402-2.1l8.127-14.2h3.11l1.104-1.8h-3.111l3.612-6.2h-3.812l-3.612 6.2h-3.411l-1.104 1.8h3.512l-7.625 13.2c-1.605 2.8-.502 5.4 2.608 5.4 1.907 0 3.913-1.2 6.02-3l-1.505 2.6h3.813l5.818-10c5.819-7.3 8.428-6.4 6.823-3.6l-4.916 8.6c-1.606 2.8-.502 5.4 2.608 5.4 2.308 0 4.916-1.8 7.324-4.2 0 2.5 1.906 4.3 5.016 4.3Zm3.11-13.7c2.208-3.8 6.12-3.1 3.813.8l-.502.9c-1.806 3.1-4.314 3-5.718 2.5l2.407-4.2Zm-14.848 41.4-.301.3c-2.709 3.2-5.417 5.7-7.123 5.7-.803 0-1.304-.6-.401-2.1l5.518-9.6c1.605-2.9.1-5-2.007-5-1.605 0-3.411.9-5.317 2.8l1.404-2.5h-3.812l-6.12 10.6c-.1-.05-.175-.1-.251-.15-.075-.05-.15-.1-.251-.15l-.301.3c-1.705 1.9-3.812 2.8-5.718 2.8l3.612-6.2c2.307-4 .2-7.7-3.411-7.7-2.91 0-5.217 1.2-7.425 5l-1.906 3.2-1.605 2.8a.514.514 0 0 0-.151-.1l-.027-.014a.437.437 0 0 1-.123-.086l-.301.3c-3.11 3.6-5.819 5.9-8.829 7.2l10.434-17.8h-3.812l-6.722 11.7c-2.91 2.7-5.217 4.2-5.919 3.9-.885-.392-.037-1.743.47-2.55l.031-.05 7.424-12.9h-3.812L184.4 332c-.05-.05-.1-.075-.15-.1a.514.514 0 0 1-.151-.1l-.301.3c-2.709 3.2-5.417 5.7-7.123 5.7-.803 0-1.304-.6-.401-2.1l5.518-9.6c1.605-2.9.1-5-2.007-5-1.605 0-3.411.9-5.317 2.8l1.404-2.5h-3.812l-6.12 10.5c-.1-.1-.201-.2-.401-.2l-.301.3c-2.709 3.2-5.418 5.7-7.123 5.7-.803 0-1.305-.6-.402-2.1l6.12-10.7h-2.207c.1-1.6-1.505-3.8-4.013-3.8-2.007 0-4.916 1.6-6.521 4.4l-3.913 6.8c-.301-.2-.602-.4-.803-.5l-.301.3c-2.708 3.2-6.119 5.7-9.832 5.7-2.608 0-4.213-2.6-1.906-6.5l1.104-1.9c.702.1 1.404.2 2.207.2 4.013 0 8.628-2.1 11.638-7.3 1.103-1.9 1.505-3.6 1.505-5.1 0-3.4-2.207-5.7-5.017-5.7-2.106 0-4.615 1.5-6.32 4.4l-5.919 10.2c-2.208-1.2-3.411-3.3-3.411-5.4 0-1.8.802-3.5 2.407-4.8l-1.204-2.2c-2.708 1.9-3.912 4.5-3.912 7.1 0 3 1.705 5.9 4.815 7.5l-1.103 2c-2.709 4.6-1.104 9.7 4.314 9.7 4.214 0 7.424-1.9 10.032-4.4-.802 2.4.402 4.4 3.111 4.4 1.504 0 3.411-1 5.317-2.5.201 1.5 1.404 2.5 3.311 2.5 1.806 0 3.812-1.1 5.718-2.8l-1.404 2.4h3.812l5.819-10.1c5.819-7.3 8.427-6.3 6.722-3.5l-4.916 8.6c-1.605 2.8-.502 5.4 2.608 5.4 2.007 0 4.314-1.4 6.522-3.4-.502 2.1.501 3.4 2.407 3.4 1.806 0 3.913-1.5 5.619-3.1l-2.107 3.6c-5.117 1.5-8.428 3.6-8.428 6.5 0 3.6 5.619 4.4 8.328-.3l2.909-5c3.21-1 6.321-3 9.631-6.2-.501 5.3 6.522 6.5 10.836 1.1h.802c1.405 0 3.311-.5 5.017-1.5l-2.509 4.4h3.813l5.819-10.1c5.819-7.3 8.427-6.3 6.722-3.5l-4.916 8.6c-1.606 2.8-.502 5.4 2.608 5.4 3.11 0 6.722-3.4 9.932-7-.1-.3-.802-.9-1.304-1.1Zm-94.708-14.2c1.104-1.9 2.408-2.8 3.411-2.8 1.405 0 2.107.9 2.107 2.3 0 3.5-4.314 9.9-10.233 9.9h-.803l5.518-9.4Zm13.444 14.8c-2.308 3.6-4.615 5.3-6.12 5.3-.803 0-1.304-.6-.401-2.1l5.317-9.2c2.006-3.5 6.12-2.6 4.214.8l-3.01 5.2Zm28.894 13.8c-.803 1.4-2.107 1.2-2.107.2s.903-2.1 3.812-3.2l-1.705 3Zm25.683-14.2h-.2c-1.204 0-2.208 1-2.208 2.3 0 .5.101.9.402 1.3v.1c-1.806 3.1-6.12 2.5-3.913-1.5l2.91-5 1.805-3.1c2.709-4.5 6.321-2.7 4.013 1.2l-2.809 4.7Zm113.47-.2c.501.1 1.203.7 1.404 1.3-2.809 3.3-6.722 6.4-10.534 7.1h-.101c-.401.1-.702.1-1.103.1-3.512 0-4.214-3.1-4.214-3.1l2.408-1.2s.502 1.4 1.806 1.4c2.393 0 2.848-3.117 3.321-6.356.24-1.648.485-3.328.993-4.644-.411.528-.857 1.123-1.338 1.765-1.159 1.55-2.519 3.368-4.08 5.135-3.21 3.6-6.822 7-9.932 7-3.11 0-3.712-1.7-3.712-4.9v-3l-4.314 7.5h-3.813l2.107-3.7c-2.708 2.3-5.718 4-8.828 4-3.111 0-5.117-1.9-5.117-4.4-2.508 2.5-5.117 4.4-7.525 4.4-2.407 0-3.611-1.6-3.21-3.6-1.806 1.7-4.113 3.6-6.22 3.6-1.605 0-2.508-1-2.508-2.5-1.806 1.3-3.712 2.1-5.619 2.4h-.1c-.401.1-.702.1-1.104.1-3.119 0-4.021-2.446-4.184-2.992a90.043 90.043 0 0 1-2.236 2.692 20.156 20.156 0 0 0-.293-.227c-.426-.327-.868-.667-1.112-1.073 3.511-4 12.24-15.6 13.845-17.8l2.809 1.5c-1.474 2.939-1.933 6.176-2.343 9.072-.26 1.835-.501 3.532-.968 4.928.304-.259.646-.538 1.001-.827l.008-.006.002-.002.001-.001c.461-.376.945-.77 1.396-1.164l7.424-12.7h3.813l-7.424 12.9-.032.05c-.506.808-1.354 2.159-.47 2.55.702.3 2.909-1.2 5.819-3.8l6.722-11.8h3.812l-8.126 14.2c-.903 1.5-.402 2.1.401 2.1 1.706 0 4.414-2.5 7.123-5.7l.301-.3s.101.1.201.1l3.712-6.4c1.605-2.8 4.013-4.4 7.123-4.4 3.11 0 5.016 2.6 3.01 6.1l-.502.9h-3.11l.502-.9c2.307-3.9-1.605-4.6-3.813-.8l-3.912 6.8c-1.706 3-.301 4.5 2.006 4.5 2.709 0 6.22-2.5 8.929-5.7l.301-.3c.201.1.502.3.702.5l10.836-18.8h3.812l-5.417 9.4c3.912-3.6 9.631-1.6 6.119 4.5l-1.003 1.8c-1.806 3.1-4.615 4.8-7.324 4.5v1.6c0 1.8.803 2.6 1.606 2.6 1.705 0 4.414-2.5 7.123-5.7l.301-.3c2.821-3.307 5.641-7.231 7.441-9.733v-.001c.377-.523.708-.985.986-1.366l2.809 1.5c-1.474 2.939-1.933 6.176-2.343 9.072-.26 1.835-.501 3.532-.968 4.928 1.505-1 3.211-2.5 4.616-4.1l.301-.3Zm-75.353 5.204 2.215-1.104s.501 1.4 1.805 1.4c2.394 0 2.849-3.117 3.321-6.356.241-1.648.486-3.328.993-4.644-.98 1.354-5.309 6.949-8.334 10.704Zm52.578-8.804-1.103 1.9c.903 2.5 4.214 1.1 5.317-.9l1.806-3.1c1.405-2.3-1.605-4-6.02 2.1Zm24.079 7.5c-1.204 0-2.207 1-2.207 2.2 0 1.2.903 2.2 2.207 2.2 1.204 0 2.207-.9 2.207-2.2 0-1.2-1.003-2.2-2.207-2.2Zm4.013-1.5h-3.813l11.939-20.7h3.813l-11.939 20.7Zm25.182 1.4c-.101.3-.201.6-.201.9 0 .7.301 1.3.803 1.6.501.4 1.003.6 1.705.6 0 .4-.1.7-.301 1-.201.3-.401.6-.702.8-.301.2-.602.4-.903.5-.21.139-.42.23-.596.306a4.953 4.953 0 0 0-.207.094l1.405 2c.062-.062.124-.085.21-.118a1.91 1.91 0 0 0 .191-.082c.075-.037.15-.088.229-.143.135-.092.285-.194.473-.257.301-.1.602-.3.903-.5.301-.2.602-.5.803-.7.602-.5 1.003-1.2 1.304-1.9.301-.8.502-1.5.502-2.4 0-.5-.1-.9-.201-1.3-.042-.083-.079-.163-.115-.238-.136-.287-.249-.525-.487-.762-.301-.3-.702-.5-1.103-.7-.402-.2-.803-.3-1.305-.3-.401 0-.802.1-1.103.2l-.001.001c-.301.199-.601.399-.802.599-.2.2-.401.5-.501.8Zm-7.826 0c-.1.3-.201.6-.201.9 0 .7.201 1.3.803 1.6.502.4 1.003.6 1.706.6 0 .4-.101.7-.301 1-.201.3-.402.6-.703.8-.301.2-.602.4-.903.5-.301.2-.501.3-.802.4l1.404 2c.062-.062.124-.085.21-.118.053-.02.115-.044.192-.082.074-.037.149-.088.229-.143.135-.092.284-.194.473-.257.301-.1.602-.3.903-.5.301-.2.602-.5.803-.7.602-.5 1.003-1.2 1.304-1.9.301-.8.501-1.5.501-2.4 0-.5-.1-.9-.2-1.3-.201-.4-.402-.7-.602-1-.301-.3-.702-.5-1.104-.7-.401-.2-.802-.3-1.304-.3-.401 0-.803.1-1.104.2v.001c-.301.199-.602.399-.802.599-.201.2-.402.5-.502.8Z" fill="#fff"/></symbol><symbol id="htmlacademy"><path d="M13.6 0h-.1L0 1.4v24.7l13.5 8 13.4-8V1.4L13.6 0ZM25 12.1 13.5 5.3v-.1h-.1l-.1-.1v.1L1.9 12.1v-9l11.5-1.2L25 3.1v9ZM13.4 6.8l11.5 6.7-4.5 2.6-7.1-4.2v1.4l5.9 3.5-.9.5-5-3v1.4l3.8 2.3-.8.5-3-1.8v1.4l1.9 1.1-1.8 1.1L2 13.6l11.4-6.8ZM1.9 15.1l11.4 6.8v1l-7.9-4.7v1.4l8 4.8v1.1l-8-4.7v1.4l8 4.8 8.1-4.9v-5.2l3.4-2v10l-11.5 6.9L1.9 25v-9.9Z" fill="currentColor"/></symbol><symbol id="icon-burger"><path d="M71.711 45.332H4.29C1.895 45.332 0 47.303 0 49.57v3.45c0 2.266 1.895 4.138 4.289 4.138h.997v.986c0 5.42 4.488 9.756 9.874 9.756h45.68c5.486 0 9.874-4.435 9.874-9.756v-.986h.997c2.294 0 4.289-1.872 4.289-4.237v-3.45c0-2.168-1.895-4.139-4.289-4.139Zm-3.89 12.812c0 3.745-3.091 6.8-6.881 6.8H15.06c-3.79 0-6.882-3.055-6.882-6.8v-.986h59.644v.986Zm5.187-5.223c0 .69-.599 1.28-1.297 1.28H4.29c-.698 0-1.297-.59-1.297-1.28v-3.45c0-.59.599-1.182 1.297-1.182H71.81c.698 0 1.297.591 1.297 1.281v3.35h-.1ZM16.157 37.35l5.386 3.941 5.486-3.941 5.485 3.941L38 37.35l5.386 3.941 5.485-3.941 5.486 3.941 5.486-3.941 5.485 3.941 6.284-4.631-1.696-2.365-4.588 3.252-5.485-3.942-5.486 3.942-5.486-3.942-5.485 3.942L38 33.605l-5.486 3.942-5.485-3.942-5.486 3.942-5.386-3.942-5.485 3.942-4.588-3.252-1.795 2.365 6.383 4.632 5.485-3.942ZM70.714 30.649c0-.592.1-2.563 0-2.957C70.016 12.32 55.654 0 38 0 20.346 0 5.884 12.319 5.186 27.692v2.957h65.528ZM38 2.956c15.958 0 29.123 11.038 29.722 24.736H8.178C8.877 13.994 22.042 2.956 38 2.956Z" fill="#81B3D2"/><path d="M38 16.753a1.983 1.983 0 0 0 1.995-1.97A1.983 1.983 0 0 0 38 12.81a1.983 1.983 0 0 0-1.995 1.971c0 1.089.893 1.971 1.995 1.971ZM30.021 11.924a1.983 1.983 0 0 0 1.995-1.971 1.983 1.983 0 0 0-1.995-1.97 1.983 1.983 0 0 0-1.995 1.97c0 1.089.893 1.971 1.995 1.971ZM45.979 11.924a1.983 1.983 0 0 0 1.995-1.971 1.983 1.983 0 0 0-1.995-1.97 1.983 1.983 0 0 0-1.995 1.97c0 1.089.893 1.971 1.995 1.971Z" fill="#81B3D2"/></symbol><symbol id="icon-gift"><path d="M61.156 22.117H36.368C50.184 15.319 51.302 11.02 50.794 8.62c-1.118-3.899-5.69-6.898-9.956-5.298-5.587 2.099-7.111 10.296-8.635 16.194-1.93-5.998-3.759-13.595-8.127-17.494-1.219-1.1-3.047-2.2-5.79-2-4.064.4-9.854 5.299-7.416 10.797 2.235 5.299 9.65 8.697 14.628 11.397H2.844A2.817 2.817 0 0 0 0 25.016v11.196c0 1.6 1.32 2.8 2.844 2.8h.305V75h57.905V39.011h.102c1.625 0 2.844-1.3 2.844-2.799V25.016c0-1.6-1.32-2.9-2.844-2.9ZM42.464 5.822c2.133-.3 4.977 1.3 5.282 3.199.406 2.699-3.352 5.198-5.08 6.298-2.539 1.7-4.977 2.599-7.314 3.999.813-3.7 2.54-12.896 7.112-13.496Zm-22.96 9.797c-2.234-1.5-6.5-4.399-6.4-7.698.102-3.599 5.791-6.498 8.839-3.799 3.86 3.3 5.689 10.997 7.111 16.395-3.25-1.6-6.298-2.799-9.55-4.898ZM25.499 72H6.095V39.01h19.403v32.99Zm0-35.989H3.048V25.116h22.45v10.896Zm10.16 35.989h-7.214V25.116h7.213V72Zm22.348 0H38.705V39.01h19.403v32.99h-.102Zm2.946-35.989H38.705V25.116h22.247v10.896Z" fill="#81B3D2"/></symbol><symbol id="icon-house"><path d="M29.619 64.939h16.064V41.17H29.619v23.768Zm13.152-2.884h-10.24v-18h10.14v18h.1Z" fill="#81B3D2"/><path d="M72.892 39.182 75 37.094l-9.94-9.845V.398H51.205v13.127L37.45 0 0 37.193l2.108 2.089 7.832-7.757v37.591H6.024V72h64.157v-2.884h-5.12v-37.69l7.83 7.756Zm-18.775-35.8h7.931v20.983l-7.931-7.857V3.381Zm8.032 65.635H12.952V28.54L37.45 4.177 62.048 28.54v40.476h.1Z" fill="#81B3D2"/><path d="M29.92 27.05c0 4.275 3.514 7.756 7.73 7.756 4.318 0 7.832-3.48 7.832-7.757 0-4.276-3.514-7.657-7.831-7.657-4.318 0-7.731 3.38-7.731 7.657Zm7.73-4.973c2.712 0 5.02 2.188 5.02 4.972 0 2.685-2.208 4.972-5.02 4.972-2.71 0-5.02-2.187-5.02-4.972 0-2.685 2.31-4.972 5.02-4.972ZM19.98 41.17h-3.012v3.88h3.012v-3.88ZM25.904 41.17h-3.012v3.88h3.012v-3.88ZM19.98 47.139h-3.012v3.878h3.012V47.14ZM25.904 47.139h-3.012v3.878h3.012V47.14ZM52.008 41.17h-3.012v3.88h3.012v-3.88ZM58.032 41.17H55.02v3.88h3.012v-3.88ZM52.008 47.139h-3.012v3.878h3.012V47.14ZM58.032 47.139H55.02v3.878h3.012V47.14Z" fill="#81B3D2"/></symbol><symbol id="icon-mail"><path d="M8 8c-.3 0-.5-.1-1-.3L0 4v7c0 .5.5 1 1 1h14c.5 0 1-.5 1-1V4L9 7.7c-.5.2-.7.3-1 .3Zm7-8H1C.5 0 0 .5 0 1v.8L8 6l8-4.2V1c0-.5-.5-1-1-1Z" fill="#000"/></symbol><symbol id="icon-phone"><path d="M3.6 7.8c1.4 2.8 3.8 5.1 6.6 6.6l2.2-2.2c.3-.3.7-.4 1-.2 1.1.4 2.3.6 3.6.6.6 0 1 .4 1 1V17c0 .6-.4 1-1 1C7.6 18 0 10.4 0 1c0-.6.4-1 1-1h3.5c.6 0 1 .4 1 1 0 1.2.2 2.4.6 3.6.1.3 0 .7-.2 1L3.6 7.8Z" fill="#010101"/></symbol><symbol id="icon-video"><path d="M48 27 0 54V0l48 27Z" fill="#fff" fill-opacity=".7"/></symbol><symbol id="intro-triangle"><path d="M249.6 23.7 0 0v57h600L249.6 0v23.7ZM950.4 23.7V0L600 57h599.9V0L950.4 23.7Z" fill="#fff"/></symbol><symbol id="like-icon"><path opacity=".3" d="m12.964 3.78-.628 3.045-.627 2.625h9.096v2.205L17.773 18.9h-9.41V8.4l4.6-4.62ZM2.09 10.5v8.4-8.4ZM13.8 0 6.9 6.93c-.418.315-.627.84-.627 1.47v10.5c0 1.155.94 2.1 2.09 2.1h9.41c.836 0 1.568-.525 1.881-1.26l3.137-7.455c.104-.21.104-.525.104-.735v-2.1H23c0-1.155-.94-2.1-2.09-2.1h-6.587l1.045-4.83v-.315c0-.42-.209-.84-.418-1.155L13.8 0ZM4.182 8.4H0V21h4.182V8.4Z" fill="#000"/></symbol><symbol id="logo"><path d="M185 0H0l79.81 90.101c7.039 7.865 18.44 7.865 25.479 0L185 0Z" fill="#81B3D3"/><path d="M42.83.697 92.004 58.84l48.878-57.745L42.83.697Z" fill="#23A9E1"/><path d="M120.954 17.224c-5.056 0-10.014.1-15.07.1 5.949-6.87 8.626-6.173 15.07-.1ZM80.107 22.6h26.471c-1.983-1.195-6.642-7.069-9.22-4.879-.198.2-7.436-8.86-12.195-4.48-4.163 3.784-6.047-.497-10.806 2.49-5.255 3.583 3.172 5.674 5.75 6.869Z" fill="#fff"/><path d="M92.302 0H41.838v22.4l50.166 61.23.298-.398 50.265-60.134V0H92.302ZM54.429 1.792h5.453v17.124l-5.453-6.471V1.792Zm-.793 9.757L48.68 5.675V1.792h4.957v9.757ZM72.771 8.86 67.12 1.792h5.65v7.069Zm-6.544 3.783L60.675 1.792h5.552v10.852Zm-5.65-9.259 5.452 10.653c-2.776 2.09-4.66 3.982-5.453 4.878V3.385Zm6.443-.498 5.552 6.87a41.788 41.788 0 0 0-3.073 1.891 53.695 53.695 0 0 0-2.479 1.793V2.886Zm6.544-.199 4.759 4.182c-1.686.696-3.272 1.493-4.76 2.29V2.687Zm5.552 3.883-5.354-4.779h5.949v4.58c-.298 0-.397.1-.595.199Zm18.936-4.779h4.957l-4.957 2.39v-2.39Zm-5.75 0h4.362l-4.362 2.09v-2.09Zm-.893 1.991-4.164-1.99h4.164v1.99Zm-5.452.498L80.9 1.792h5.057v2.489Zm-5.552-1.892 4.66 2.29c-1.587.399-3.173.797-4.66 1.295V2.389Zm6.345 0 3.37 1.593c-1.19.1-2.28.2-3.47.399V2.389h.1Zm10.31.1v1.892c-1.09-.2-2.18-.3-3.37-.399l3.37-1.493Zm6.445-.1v3.684c-1.487-.498-3.074-.995-4.76-1.394l4.76-2.29Zm.694-.597h5.849l-5.353 4.779c-.199-.1-.298-.1-.496-.2V1.793Zm13.483 0h5.552l-5.552 10.852V1.792Zm-6.543 0h5.651l-5.651 6.97v-6.97Zm-.793.896V9.16c-1.488-.796-3.074-1.593-4.759-2.29l4.759-4.18Zm6.543.2V13.34c-.694-.498-1.487-.996-2.28-1.593-.992-.697-2.181-1.394-3.371-2.09l5.651-6.77Zm6.345.497v15.133c-1.09-.996-2.875-2.688-5.453-4.58l5.453-10.553Zm.793 15.93V1.791h5.453v11.35l-5.453 6.172c.099.1 0 .1 0 0Zm6.246-17.523h4.957v4.68l-4.957 5.774V1.792Zm-82.288 0V4.68l-2.479-2.887h2.479Zm12.69 18.12.1.1s3.569-3.883 9.12-7.567c5.255-3.485 13.186-7.567 22.11-7.467 8.823 0 16.953 4.181 22.108 7.666 5.552 3.684 9.22 7.467 9.319 7.566l-3.866 4.48c-6.841.897-11.798 6.074-18.441 4.979-3.37-.598-3.47-2.49-4.461-4.48-.694-1.494-1.884-1.295-3.47-1.892-1.388-.598-2.28-1.693-5.155-1.095-2.479.597-2.776 4.48-5.949 4.28-1.685-.099-1.785-2.488-4.164-5.475-6.246-7.567-12.095-6.471-16.061.498l30.04 35.742-31.23-37.335Zm75.249-14.436V1.792h3.173l-3.173 3.684Z" fill="#491213"/><path d="m87.94 70.588 4.064-6.472 3.966 6.472-3.966 6.47-4.065-6.47Z" fill="#23A9E1"/><path d="M64.938 32.158c.496.597.893 1.294.793 2.09-.099.598-.892 1.593-.297 1.792.694-.896 1.487-1.891 2.181-2.787-.595-.2-5.353-5.775-5.353-6.472-1.091.598-2.083 1.195-3.173 1.693.198.697 1.289 0 1.884 0 .793.1 1.388.597 1.983 1.195-1.686 1.393-5.85 4.978-6.346 5.077-.198 0-1.09-.597-1.09-.1 0 .3.892.996.991 1.195.694.896 1.487 1.792 2.181 2.688.595-.298-.099-.697.199-1.194.297-.398 4.858-4.281 6.047-5.177ZM59.684 25.189c.396-.1.595.398.991-.1-.793-.996-1.586-1.892-2.38-2.887-.396-.399-.792-.896-.693 0 .099.597-6.048 5.675-6.444 5.774-.496.2-.794-.398-1.091.1.694.896 1.487 1.692 2.181 2.588.198.299.496.598.694.896.297.299.198-.697.198-.597-.099-.498.496-.896.893-1.195 1.487-1.294 5.254-4.58 5.65-4.58ZM50.96 24.293c-1.785.497-3.669-.2-4.165-1.992-.495-1.792.595-3.783 2.082-4.779 1.388-.995 3.57-.995 4.362.797.298.796.199 1.692-.099 2.489-.198.498-.595.995.1 1.294.892-1.095 1.685-2.19 2.577-3.285-1.09-.598-1.487-1.693-2.28-2.589-.892-1.095-2.082-2.09-3.47-2.29-2.875-.398-5.552 2.589-5.75 5.177-.1 1.494.396 2.788 1.19 3.983.793.995 1.883 1.593 2.379 2.787.297.1 2.677-.995 3.271-1.294-.099-.1-.099-.199-.198-.299-.694.2 0 0 0 0ZM89.922 60.532c-1.19-.796-3.965-4.68-4.56-5.277-.1-.1-.199-.298-.298-.398 0 0-.297.2-.198.2-.198.099.1.597-.1.895-.792 1.195-5.75 4.978-5.948 5.177-.594.399-1.19-.199-1.487.3.694.895 2.776 3.484 2.974 3.583.496.1.1-.796.199-.995.099-.399 2.577-2.39 3.47-3.186.297-.299.694.398.892.697.297.497.496.995.297 1.593-.099.398-.694.896-.297 1.194.595-.697 2.38-2.787 2.578-2.986.297-.3-.595 0-.496-.1-.397.2-.694.2-1.09 0-.1-.1-1.091-1.095-.992-1.195.397-.398.991-.995 1.487-1.095.892-.199 1.586 1.493 1.686 2.09.099.598.099 1.195-.1 1.793-.099.398-.495.697 0 .896.694-.996 1.388-1.892 2.082-2.887.199-.2 0-.299-.099-.299-.099-.1.199 0 0 0ZM79.81 56.35c2.18-1.891 2.478-5.077.793-7.267-1.884-2.49-5.354-3.087-7.733-1.095-2.181 1.891-2.479 4.977-.793 7.267 1.983 2.688 5.155 2.987 7.733 1.095 1.19-.895-.1.1 0 0Zm-.496-4.679c-.595 1.494-2.181 3.087-3.668 3.684-1.785.697-3.074-.796-2.38-2.589.694-1.493 2.181-3.086 3.669-3.683 1.883-.697 3.073.896 2.379 2.588-.396.896.1-.199 0 0ZM73.465 41.815c.495.1.892.498 1.288 0-.694-.896-1.487-1.792-2.18-2.589-.595.299 0 .498-.199.996-.198.398-2.578.796-3.172.896.198-.597.892-2.589 1.19-2.788.495-.398.892.398 1.288-.1l-2.677-3.285c-.297-.398-.595-.995-.991-.697 0 0 0 1.494-.1 1.693-.099.199-.892 3.584-1.883 4.48-.496.398-2.181 1.892-2.677 2.09-.496.2-.793-.597-1.19 0 .794.996 1.686 1.992 2.479 2.988.1.1.595.896.793.896.496.1.1-.896.1-1.096.197-.398 2.478-2.688 3.47-2.887 1.189-.199 2.974-.697 4.46-.597.298.1-.396 0 0 0Z" fill="#fff"/><path d="M67.219 22.8c-3.966-.2-2.38-3.983.396-4.78 2.578-.796 8.03 1.693 9.716 3.385-2.776.896-6.345.697-9.32.896-.197-3.186-.99-2.09-.792.498ZM76.637 35.244c-8.526-.1-2.776-13.241.1-12.445 3.37 1.095 2.974 12.544-.1 12.445ZM82.685 30.963c-.793 2.489-2.38 2.987-2.181-.1.198-3.484 2.478-2.688 4.858-3.982 1.983-1.095 3.073-5.177 6.543-2.788 1.586 1.096 3.37.2 3.867 1.792 0-.1-4.462 10.255-1.983 10.255-4.957 0-2.776-5.874-.892-9.856-1.785.896-4.76 6.67-2.38 7.566-1.289 1.693-5.155 3.883-7.138 2.29-1.487-1.095-.694-3.186-.694-5.177ZM86.75 40.52c-3.47.996-8.03-1.194-2.479-2.29 3.47-.696 7.138.698 2.479 2.29.099 0-.1 0 0 0ZM91.112 40.421c-.694-1.693.595-3.584 2.677-2.19 1.784 1.194-.892 3.086-2.677 2.19ZM88.138 45c-2.38-.696-10.41-.597-5.156-2.787 1.686-.597 10.113.2 5.156 2.788ZM98.548 48.286c-1.388-1.194-2.876-1.294-4.164 0-1.785-3.285-8.23-2.19-11.303-2.688 1.587 4.082 14.673 4.879 15.467 2.688ZM96.664 50.775c-3.173-.1-6.643-.597-9.518.1 1.884.498 6.345 1.792 2.181 2.887 1.488 2.19 3.966 1.991 5.552.1-.694-.3-.991-.697-1.586-1.096 1.586-.298 3.173-1.194 3.371-1.99ZM100.233 46.892c-5.255-3.086-3.966-5.376.397-7.566 2.28-1.095 7.237-5.177 9.319-3.883-3.272 3.883-6.543 7.666-9.716 11.45Z" fill="#DC6243"/><path d="M96.466 39.625c-4.462-4.58 6.642-4.182 8.427-5.775 1.289.398 10.707-8.263 12.987-7.666-1.685 1.892-5.155 8.064-7.733 8.064-1.982 0-3.965-.298-5.452 1.096-2.182 2.09-5.85 3.086-8.23 4.28Z" fill="#F49774"/><path d="M97.953 34.05c-2.479 1.294-4.759-3.884-.496-3.386 2.776.299 5.651-.199 8.229.2-1.983 2.29-4.66 3.583-7.733 3.185Z" fill="#F4B1A4"/><path d="M110.445 52.269c.198.597.297 1.294.198 1.99-.099.897-.991 2.888-2.181 2.29-1.19-.597-2.181-1.692-3.173-2.588.793-.896 1.487-1.692 2.875-1.294.397.1.694 0 .298-.299-.397-.199-3.074-1.991-3.272-1.792-.297.299.496.896.198 1.493-.198.399-.594.797-.892 1.195-.694-.597-1.883-1.294-1.09-2.29.495-.697 1.288-1.194 2.082-1.294.594-.1 1.784.398 1.982-.2-1.09-.497-2.181-.995-3.271-1.592.198.797-3.272 4.48-4.065 5.476-.099.1-.694.597-.694.796 0 .399.595.1.694.1.496-.2 6.742 5.077 6.94 5.476.099.298-.198.597 0 .697 0 0 .198.199.297.199.397-.498 4.462-5.974 5.354-6.173-.793-1.195-1.586-2.39-2.379-3.684-.595.299 0 .996.099 1.494ZM104.298 58.94c-2.082-1.295-5.552 1.293-6.048 1.492-.991.498-1.784-.497-1.289-1.493.496-.796 1.388-1.195 2.28-1.294.298 0 1.29.199 1.488 0 .099-.2.198-.2 0-.299-.892-.597-1.686-1.195-2.578-1.692-.198 1.095-1.388 1.692-2.082 2.389-.793.896-1.487 1.892-1.487 3.186 0 1.095.694 2.09 1.685 2.688 1.091.597 2.28.1 3.272-.498.595-.398 1.289-.896 1.884-1.194.991-.498 2.28-.1 1.983 1.294-.298 1.095-1.388 2.09-2.38 2.29-.595.199-1.289.1-1.883-.1-.397-.1-.992-.697-1.19-.1 1.19.797 2.28 1.693 3.47 2.49.099-.797.496-1.096 1.09-1.593a13.288 13.288 0 0 0 1.983-2.091c1.19-1.693 1.586-4.082-.198-5.476Z" fill="#fff"/><path d="M104.298 58.94c.991.596-.595-.499 0 0ZM140.683 19.514c-.694.697-8.328-2.29-8.923-2.788-.297-.1-.297-1.294-.694-.796l-1.189 1.493c-.397.498-.793.996-1.289 1.493-.298.299-.496.498 0 .697.793-.398 5.354 7.268 4.957 8.463-.694.398-6.841-5.078-7.039-5.377-.099-.1.297-.995-.198-.896-.199 0-.694.896-.893 1.096-.297.398-.595.697-.892 1.095.297.498.496 0 .991 0 .397.1 1.785 1.294 2.182 1.692-.694 0-2.677.1-2.876.1-.892.1-.396-.697-.991-.896-.793.896-1.487 1.792-2.28 2.787-.397.498-.893 1.096-1.289 1.593-.099.1 0 0 0 .1.297.299.099.2.595 0 .495-.2 6.543 4.878 6.741 5.177.397.398-.198.996.397 1.195.595-.697 1.19-1.494 1.785-2.19.099-.1.099-.1 0-.2-.397-.398-.496.2-.992.2-.496-.1-4.362-3.386-5.849-4.58 1.784-.1 7.237-.299 8.129-.299.298 0 1.091.896 1.091 1.195-.099.398-.496.597.099.796.496-.597.992-1.095 1.487-1.692l.199-.299c.099-.1.099-.1.198-.299l.198-.199c.397-.498 1.785-1.99 1.586-2.09-.495-.399-.694.497-1.288-.1-.298-.2-1.19-1.792-1.388-2.19-.298-.399.594-.896.991-1.096.793-.497 3.173-1.194 3.47.3 0 .298-.297.497-.099.696 0 0 .198.2.297.2.199-.2 2.38-2.788 3.272-3.983a2.729 2.729 0 0 1-.496-.398Zm-7.336 2.19c.099 0 .198-.1 0 0-.298.199-.694.498-.992.796-.495-.896-.991-1.792-1.586-2.688 1.19.498 2.379.996 3.47 1.494-.198.1-.496.199-.892.398ZM123.73 32.855c-2.38-1.992-5.552-1.394-7.535.796-1.884 2.29-1.685 5.675.595 7.566 2.28 1.892 5.651 1.394 7.535-.796 1.883-2.29 1.784-5.675-.595-7.566Zm-.298 6.57s0 .1 0 0c-1.288 1.295-3.37.1-4.461-.697-1.091-.796-3.073-2.588-1.884-4.081 1.091-1.295 3.074-.2 4.164.497 1.19.797 3.371 2.589 2.281 4.182l-.1.1Z" fill="#fff"/><path d="M123.73 32.855c1.19.995-.298-.2 0 0ZM123.432 39.526c0-.1 0-.1 0 0l.1-.1c-.1 0-.1.1-.1.1ZM117.186 41.914c.1.1.298.3 0 0-2.875-2.19-6.245-1.593-8.427 1.096a9395.1 9395.1 0 0 1-2.974 3.584c.397.498.793-.1 1.289.199.397.299 6.147 5.077 6.246 5.376.198.498-.297.498.099.896.198.1 4.461-5.177 4.858-6.173.892-1.792.297-3.683-1.091-4.978Zm-1.288 6.77c-.199.3 0 .1-.694.697-.298.3-6.345-4.679-6.147-4.878.793-.896 2.578-1.593 3.569-1.294 2.181.497 5.155 3.186 3.272 5.475Z" fill="#fff"/></symbol><symbol id="sedona"><path d="M27.316 26.637c0 .25-.05.452-.05.653-.251 2.01-.903 3.97-1.955 5.78a11.456 11.456 0 0 1-4.26 4.221c-.652.302-1.354.553-2.055.804-.702.201-1.404.402-2.105.553-.602.1-1.153.201-1.755.252-.601.05-1.152.1-1.704.1h-.601a19.727 19.727 0 0 1-6.867-1.558C3.76 36.437 1.754 35.18 0 33.572l4.661-7.488.1.1.1.1a24.24 24.24 0 0 0 3.56 3.217c1.302.955 2.856 1.508 4.56 1.608.05 0 .1 0 .15.05.05 0 .1.051.15.051.051 0 .101 0 .151.05.05 0 .1.05.15.05.151 0 .301 0 .502-.05.15 0 .35-.05.501-.1.601-.1 1.203-.352 1.754-.704.552-.352 1.003-.754 1.303-1.306.05-.101.1-.151.1-.252.05-.1.1-.15.1-.251.101-.251.151-.503.151-.754.05-.251.05-.452.05-.653 0-1.056-.45-1.96-1.353-2.664a11.45 11.45 0 0 0-2.957-1.659c-.451-.15-.852-.301-1.203-.402-.4-.1-.752-.2-1.103-.25-.05 0-.1 0-.1-.051-.05 0-.1-.05-.1-.05a17.415 17.415 0 0 1-5.363-2.262C4.21 18.847 3.057 17.39 2.406 15.43l-.3-1.206c-.101-.452-.151-.854-.201-1.357-.05-.15-.05-.302-.05-.452v-.453c0-.301 0-.603.05-.955 0-.301.05-.603.15-.954.1-.754.3-1.558.601-2.312A8.31 8.31 0 0 1 3.71 5.629C4.962 3.569 6.566 2.11 8.52 1.206 10.375.452 12.43 0 14.535 0c.501 0 1.002.05 1.554.1.5.05 1.052.151 1.604.202 1.403.25 2.806.603 4.16 1.155a26.973 26.973 0 0 1 3.809 1.91l-3.208 7.187a28.007 28.007 0 0 0-3.308-2.06c-1.153-.604-2.406-.855-3.759-.855h-.501c-.902.1-1.704.503-2.506 1.206-.752.704-1.153 1.408-1.153 2.212 0 .1 0 .251.05.351 0 .101.05.252.15.352.1.252.2.503.401.754.2.252.401.453.652.654.451.351 1.053.653 1.854.954.802.302 1.654.553 2.557.855.751.2 1.453.402 2.155.553.701.15 1.303.351 1.754.502 2.155.754 3.81 2.06 4.912 3.87 1.102 1.81 1.654 3.72 1.704 5.73v.25c-.05.252-.05.503-.1.755Zm30.072 3.116v8.342H34.633V.905h22.755v8.141h-12.78v6.484h12.028v7.94H44.607v6.283h12.78Zm38.392-1.458c-1.203 2.563-2.907 4.674-5.162 6.282a16.313 16.313 0 0 1-5.915 2.564c-2.155.452-4.31.753-6.465.854-.602.05-1.253.05-1.855.05H64.456V.855h12.58c.602 0 1.203 0 1.754.05 2.105.1 4.16.402 6.215.854a14.634 14.634 0 0 1 5.614 2.563c2.155 1.508 3.859 3.518 5.062 6.031 1.203 2.513 1.904 5.076 2.055 7.69.05.25.05.452.05.703v1.508a21.36 21.36 0 0 1-2.005 8.041Zm-8.22-9.197c0-.15 0-.302-.05-.452a12.73 12.73 0 0 0-1.052-4.272c-.602-1.357-1.454-2.463-2.556-3.317A6.884 6.884 0 0 0 81.195 9.7c-1.002-.252-2.005-.352-3.057-.402h-3.759v20.505c.1 0 .25 0 .4.05.151 0 .251.05.402.05.15 0 .3 0 .4.05.1 0 .251.05.351.05.401 0 .802 0 1.203-.05.451 0 .852-.05 1.203-.1 1.003-.1 2.005-.251 2.957-.503.953-.25 1.855-.703 2.606-1.206 1.254-.904 2.156-2.11 2.757-3.668.602-1.558.902-3.167.902-4.825v-.553Zm54.932 1.96c0 .402-.05.804-.15 1.206-.1.804-.201 1.608-.451 2.413-.201.804-.501 1.608-.802 2.362-1.654 3.769-4.16 6.684-7.618 8.795-3.459 2.06-7.067 3.116-10.877 3.116-.25 0-.551 0-.801-.05-.251 0-.502-.05-.802-.05-1.304-.101-2.607-.353-3.91-.704a20.084 20.084 0 0 1-3.759-1.458c-3.258-1.709-5.814-4.171-7.668-7.338-1.855-3.166-2.807-6.483-2.807-9.9 0-.503 0-1.005.05-1.508.05-.503.1-1.055.251-1.558.2-1.005.451-2.01.802-3.066.35-1.005.751-2.01 1.303-2.965 1.804-3.317 4.26-5.83 7.468-7.589 3.157-1.759 6.515-2.613 9.974-2.613.451 0 .952 0 1.403.05.501.05.952.1 1.403.1a21.556 21.556 0 0 1 8.32 3.015c2.757 1.81 4.912 4.172 6.416 7.138 1.503 2.965 2.255 6.08 2.255 9.297v1.307Zm-10.124-2.11c0-.252-.05-.453-.05-.704a14.214 14.214 0 0 0-1.504-4.825 9.008 9.008 0 0 0-3.358-3.619 11.453 11.453 0 0 0-1.153-.502c-.401-.151-.751-.302-1.152-.402a9.23 9.23 0 0 0-1.153-.201c-.401-.05-.752-.1-1.153-.1-1.955 0-3.809.602-5.463 1.859a9.876 9.876 0 0 0-3.509 4.975c-.05.1-.05.15-.1.251 0 .1-.05.151-.05.252l-.301 1.055c-.1.352-.15.754-.25 1.156-.05.251-.05.553-.1.804 0 .252-.051.503-.051.804v.453c0 .15 0 .301.051.452.1 2.06.751 4.02 1.904 5.88 1.153 1.86 2.707 3.066 4.762 3.669.25.1.451.15.701.2l.752.152c.251.05.451.05.702.1.25 0 .451.05.701.05 2.055 0 3.91-.603 5.564-1.86 1.654-1.205 2.857-2.864 3.558-4.924l.301-1.206c.1-.453.15-.855.201-1.307.05-.252.05-.553.1-.804 0-.252.05-.503.05-.754v-.905Zm43.855 19.147-14.084-19.198c-.401-.452-.751-1.005-1.102-1.659-.351-.653-.702-1.306-1.003-2.01a19.608 19.608 0 0 1-.651-1.508 17.994 17.994 0 0 0-.602-1.357c.201 1.207.351 2.413.451 3.67a46.72 46.72 0 0 1 .151 3.718v18.344h-9.774V.905h9.774l13.983 19.098c.351.552.702 1.105 1.003 1.708.351.603.651 1.207.952 1.86.251.502.451 1.005.702 1.508.25.502.451 1.005.701 1.457-.05-.452-.1-.854-.15-1.206l-.15-1.206a18.192 18.192 0 0 1-.151-2.413c-.05-.804-.05-1.658-.05-2.512V.954h9.724v37.19h-9.724v-.05Zm42.653 0-1.855-6.684h-14.334l-1.905 6.735h-10.024L203.489.955h12.63L229 38.145h-10.124v-.05Zm-7.769-26.184c-.2-.603-.401-1.206-.551-1.86-.151-.653-.301-1.256-.451-1.91-.101-.25-.151-.452-.151-.653-.05-.2-.1-.402-.1-.603l-.15.603c-.05.201-.101.453-.151.654-.05.1-.05.15-.05.2 0 .051 0 .152-.05.202-.1.603-.251 1.156-.401 1.709l-.451 1.658-3.759 12.313h10.074l-3.809-12.313Z" fill="#fff"/></symbol><symbol id="telegram"><path d="m22.44 4.622-3.17 14.944c-.239 1.055-.862 1.317-1.748.82l-4.828-3.558-2.33 2.242c-.258.258-.473.473-.97.473l.347-4.917 8.948-8.086c.39-.346-.084-.54-.604-.192L7.022 13.314 2.26 11.823c-1.036-.323-1.055-1.036.216-1.533l18.627-7.177c.863-.323 1.617.192 1.336 1.51Z" fill="#fff"/></symbol><symbol id="tick"><path d="M21.805 1.307 20.76.222c-.285-.296-.856-.296-1.141 0L8.298 11.957 2.403 5.843c-.286-.296-.856-.296-1.142 0L.214 6.928c-.285.295-.285.887 0 1.183l7.419 7.692c.19.197.38.197.57.197.191 0 .381-.099.571-.197L21.615 2.49c.476-.296.476-.789.19-1.183Z" fill="#333"/></symbol><symbol id="vk"><g clip-path="url(#a)"><path fill-rule="evenodd" clip-rule="evenodd" d="M23.45 5.948c.166-.546 0-.948-.795-.948H20.03c-.668 0-.976.347-1.143.73 0 0-1.335 3.196-3.226 5.272-.612.602-.89.793-1.224.793-.167 0-.418-.191-.418-.738V5.948c0-.656-.184-.948-.74-.948H9.151c-.417 0-.668.304-.668.593 0 .621.946.765 1.043 2.513v3.798c0 .833-.153.984-.487.984-.89 0-3.055-3.211-4.34-6.885C4.45 5.288 4.198 5 3.527 5H.9c-.75 0-.9.347-.9.73 0 .682.89 4.07 4.145 8.551C6.315 17.341 9.37 19 12.153 19c1.669 0 1.875-.368 1.875-1.003v-2.313c0-.737.158-.884.687-.884.39 0 1.057.192 2.615 1.667C19.11 18.216 19.403 19 20.405 19h2.625c.75 0 1.126-.368.91-1.096-.238-.724-1.088-1.775-2.215-3.022-.612-.71-1.53-1.475-1.809-1.858-.389-.491-.278-.71 0-1.147 0 0 3.2-4.426 3.533-5.929h.001Z" fill="#fff"/></g></symbol><symbol id="youtube"><path d="M19.181 5H4.813C3.306 5 2 6.3 2 7.8v8.3C2 17.7 3.306 19 4.813 19h14.368c1.608 0 2.814-1.3 2.814-2.8V7.8c.1-1.5-1.206-2.8-2.814-2.8ZM9.033 15.4V8.6l6.833 3.4-6.833 3.4Z" fill="#fff"/></symbol></svg>